<svg xmlns="http://www.w3.org/2000/svg" xmlns:xlink="http://www.w3.org/1999/xlink" id="svg4633" version="1.1" viewBox="0 0 67.733333 67.733335" height="256" width="256">
  
  <defs id="defs4630">
    
    
    
    <linearGradient id="linearGradient4520">
      <stop id="stop4516" offset="0" style="stop-color:#0066cc;stop-opacity:1;"></stop>
      <stop id="stop4518" offset="1" style="stop-color:#002352;stop-opacity:1;"></stop>
    </linearGradient>
    
    
    
    <linearGradient gradientTransform="translate(-130.75115,-414.00212)" gradientUnits="userSpaceOnUse" y2="208.14508" x2="58.170101" y1="124.01085" x1="78.07132" id="linearGradient4522-0" xlink:href="#linearGradient4520"></linearGradient>
    
    <linearGradient gradientTransform="translate(-130.75115,-414.00212)" gradientUnits="userSpaceOnUse" y2="171.82298" x2="195.22147" y1="171.82298" x1="118.46795" id="linearGradient4530-7" xlink:href="#linearGradient4520"></linearGradient>
    
    
  </defs>
  <g transform="translate(-226.8072,292.72379)" id="layer1">
    <g transform="matrix(0.35595436,0,0,0.35595436,265.76509,-164.39778)" id="g6517">
      <path id="path1635-1" d="m -14.30303,-358.79403 80.79317,46.64595 -80.79316,46.64596 -80.79318,-46.64595 z" style="fill:#ffffff;fill-opacity:1;stroke:#4d4d4d;stroke-width:3.96875;stroke-linecap:round;stroke-linejoin:bevel;stroke-dasharray:none;stroke-opacity:1;paint-order:stroke fill markers"></path>
      <path id="path1691-5" d="m 66.49014,-312.14808 v 93.29191 l -80.79316,46.64596 v -93.29191 z" style="fill:#ffffff;fill-opacity:1;stroke:#4d4d4d;stroke-width:3.96875;stroke-linecap:round;stroke-linejoin:round;stroke-dasharray:none;stroke-opacity:1;paint-order:stroke fill markers"></path>
      <path id="path1747-9" d="m -95.0962,-312.14807 80.79317,46.64595 10e-6,93.29191 -80.79318,-46.64596 z" style="fill:#ffffff;fill-opacity:1;stroke:#4d4d4d;stroke-width:3.96875;stroke-linecap:round;stroke-linejoin:bevel;stroke-dasharray:none;stroke-opacity:1;paint-order:stroke fill markers"></path>
      <path d="m -87.825404,-305.61795 c -2.909016,-1.67952 -5.250966,-0.23369 -5.250966,3.24208 v 76.07963 c 0,3.47576 2.34195,7.62607 5.250966,9.30559 l 66.251572,38.25036 c 2.909044,1.67954 5.250982,0.23348 5.250982,-3.24229 v -76.07964 c 0,-3.47576 -2.341938,-7.62585 -5.250982,-9.30539 z m 33.1257,35.68595 c 13.215921,7.63022 23.965358,26.67996 23.965358,42.47053 0,11.83686 -6.227278,19.00848 -15.495124,17.84485 -0.256418,-0.0313 -0.545517,-0.20792 -0.797861,-0.49468 -0.252358,-0.27707 -0.447622,-0.64262 -0.54531,-1.00541 l -5.157009,-19.29802 c -0.203521,-0.75945 0.06509,-1.32413 0.606449,-1.25473 2.820631,0.35923 4.717368,-1.81862 4.717368,-5.41732 0,-4.80478 -3.27252,-10.60399 -7.293871,-12.92572 -4.02135,-2.32172 -7.293677,-0.30118 -7.293677,4.5036 0,3.5987 1.896709,7.96669 4.717354,10.86446 0.541333,0.55569 0.809956,1.43054 0.606435,1.95498 l -5.156996,13.33841 c -0.0977,0.25485 -0.292952,0.39007 -0.54531,0.38054 -0.134304,2.3e-4 -0.28087,-0.0504 -0.427394,-0.13495 -0.126186,-0.0729 -0.252426,-0.17007 -0.37048,-0.29183 -9.267831,-9.53791 -15.495107,-23.90019 -15.495107,-35.73705 0,-15.79056 10.749255,-22.42803 23.965175,-14.79782 z" style="opacity:0.85;fill:url(#linearGradient4522-0);fill-opacity:1;stroke-width:13.2292;stroke-linecap:round;stroke-linejoin:bevel;paint-order:stroke fill markers" id="rect4198-7"></path>
      <path d="m -7.0322312,-267.36762 c -2.9090322,1.67953 -5.2509688,5.82981 -5.2509678,9.30559 l 8e-6,76.07944 c 1e-6,3.47576 2.3419373,4.92182 5.2509692,3.24229 l 66.2515658,-38.25037 c 2.909048,-1.67954 5.250966,-5.82983 5.250966,-9.30559 l 0,-76.07943 c 0,-3.47578 -2.341919,-4.92183 -5.250967,-3.24229 z m 32.1282792,-2.2441 5.028624,-2.90327 c 0.379161,-0.21891 0.641079,0.0828 0.505634,0.59252 l -1.300031,4.80652 2.229958,-1.28747 1.588931,-5.85777 5.028795,-2.90337 c 0.379179,-0.21892 0.640907,0.0829 0.50548,0.59261 l -1.354185,4.99951 c 7.809399,-3.5703 19.112694,-4.5947 8.233726,22.9799 -5.389842,13.67235 -14.463197,23.91597 -22.904565,31.08723 l -1.462646,5.40733 c -0.153524,0.54171 -0.523628,1.05757 -0.929926,1.29215 l -5.136897,2.96578 1.300048,-4.78502 c -0.7945,0.56651 -1.561897,1.10674 -2.320271,1.62011 l -0.966069,3.55645 c -0.153524,0.54171 -0.523646,1.05758 -0.929927,1.29215 l -5.1370685,2.96588 1.1196102,-4.13075 c -3.5661317,2.05891 -5.8413408,3.0382 -5.8413408,3.0382 l 11.2852831,-39.65352 9.344262,-5.39491 c 0.803488,-0.46389 1.354185,0.16749 1.065268,1.22959 l -6.969835,25.70601 c 13.4791,-7.98712 19.690647,-24.47458 20.548323,-32.25101 0.514605,-4.64429 -1.534932,-5.39185 -3.268329,-5.24325 -0.902825,0.079 -1.86886,0.42099 -2.8439,0.98393 l -23.906608,13.80249 -5.4801393,3.16396 3.9182759,-10.52522 c 0.3520932,-0.94759 1.0201543,-1.7971 1.7333636,-2.20887 l 15.7272258,-9.08012 z" style="opacity:0.85;fill:url(#linearGradient4530-7);fill-opacity:1;stroke-width:13.2292;stroke-linecap:round;stroke-linejoin:bevel;paint-order:stroke fill markers" id="rect4422-7"></path>
      <path d="m -85.805536,-315.17969 c -2.909029,1.67953 -2.827847,4.43064 0.182248,6.16852 l 65.886916,38.03981 c 3.010094,1.73788 7.775327,1.78485 10.6843557,0.10532 L 57.199556,-309.1164 c 2.909029,-1.67953 2.827666,-4.43074 -0.182427,-6.16862 l -65.886908,-38.03982 c -3.010094,-1.73788 -7.775147,-1.78475 -10.684176,-0.10522 z m 25.798792,-8.75497 27.302968,0.26925 0.109711,3.71023 -2.335493,-0.0231 c -1.797827,-0.0177 -2.981261,0.13904 -3.411508,0.26586 -0.430289,0.12677 -0.248829,-0.012 -0.243551,0.16272 0.0091,0.30939 0.06932,0.54363 0.135644,0.68761 0.06641,0.14391 0.330238,0.57262 0.75911,1.15405 l 0.01104,0.0157 11.616946,16.87505 7.054377,-11.16695 -2.82342,-3.91258 -0.0011,-0.001 c -1.489061,-2.07541 -2.980416,-3.3371 -3.309222,-3.49624 -0.444788,-0.21532 -1.729232,-0.50444 -3.969275,-0.52652 l -2.335502,-0.0229 -0.109739,-3.71023 29.3344329,0.28928 0.1097048,3.71003 -2.335312,-0.023 c -1.9657914,-0.0194 -3.3556969,0.0742 -3.8967817,0.16497 -0.5096374,0.0962 -0.7098545,0.19707 -0.7715072,0.24091 -0.063238,0.0446 -0.094087,0.0511 -0.088736,0.22508 -0.00232,-0.0784 0.1688104,0.49751 0.6374696,1.25203 0.5647751,0.77018 1.1585274,1.57271 1.7847437,2.41218 l 0.0116,0.0161 10.4130993,14.97291 8.9873911,-14.66227 0.01551,-0.0235 c 0.352684,-0.51227 0.632819,-1.08305 0.833958,-1.7157 l 0.01062,-0.0311 0.01241,-0.0309 c 0.255856,-0.63144 0.357475,-1.15238 0.346134,-1.53588 -0.01815,-0.61327 -0.122305,-0.62765 -0.483057,-0.7458 l -0.02524,-0.008 -0.02538,-0.008 c -0.465072,-0.16091 -1.672417,-0.36357 -3.5372376,-0.38195 l -2.3349823,-0.023 -0.1097187,-3.71003 20.6252196,0.20332 2.335325,0.023 0.103934,3.50885 -1.95618,0.16441 c -2.062245,0.17323 -3.343612,0.49025 -3.775533,0.69141 l -0.0075,0.003 -0.0075,0.003 c -0.394396,0.18075 -1.052675,0.70522 -1.618875,1.63461 -1.937537,3.17977 -4.022026,6.58906 -6.253452,10.22747 -0.001,5.8e-4 -9.99e-4,5.9e-4 -0.0024,0.002 l -0.0017,0.002 c -2.872503,4.72784 -4.981121,8.27427 -6.316999,10.62478 l -6.64e-4,7.8e-4 c -2.1585193,3.80602 -4.0476714,7.31073 -5.6680157,10.51283 l -0.479154,0.94717 -4.77336692,-0.0471 -0.57095468,-0.91272 c -1.1555456,-1.84762 -2.6673658,-4.18451 -4.5328975,-7.00575 -1.3468981,-1.99594 -3.2720513,-4.79801 -5.7757612,-8.40665 l -0.0018,-0.002 -0.0015,-0.002 c -0.444999,-0.64742 -1.794278,-2.54647 -2.746715,-3.89653 l -12.07776,19.97215 -4.704409,-0.0464 -0.559679,-0.92758 c -2.449576,-4.05906 -5.704927,-9.20033 -9.762551,-15.41738 -3.412097,-5.21504 -6.36904,-9.65988 -8.872256,-13.33585 l -1.14e-4,-0.002 c -1.202158,-1.72573 -2.180207,-2.98695 -2.859508,-3.72227 -1.209896,-1.27866 -2.411961,-1.70542 -4.635462,-1.72734 l -2.332501,-0.0241 z" style="opacity:0.85;fill:#0066cc;fill-opacity:1;stroke-width:3.311;stroke-linecap:round;stroke-linejoin:bevel;paint-order:stroke fill markers" id="rect5977"></path>
    </g>
  </g>
</svg>
