<?xml version="1.0" encoding="UTF-8" standalone="no"?>
<!-- Generator: Adobe Illustrator 19.2.0, SVG Export Plug-In . SVG Version: 6.00 Build 0)  -->

<svg
   version="1.1"
   id="Layer_1"
   x="0px"
   y="0px"
   viewBox="0 0 1280 1280"
   xml:space="preserve"
   sodipodi:docname="DigiByte Symbol.svg"
   width="1280"
   height="1280"
   inkscape:version="1.3 (1:1.3+202307231459+0e150ed6c4)"
   xmlns:inkscape="http://www.inkscape.org/namespaces/inkscape"
   xmlns:sodipodi="http://sodipodi.sourceforge.net/DTD/sodipodi-0.dtd"
   xmlns="http://www.w3.org/2000/svg"
   xmlns:svg="http://www.w3.org/2000/svg"><defs
   id="defs2" /><sodipodi:namedview
   id="namedview2"
   pagecolor="#ffffff"
   bordercolor="#000000"
   borderopacity="0.25"
   inkscape:showpageshadow="2"
   inkscape:pageopacity="0.0"
   inkscape:pagecheckerboard="0"
   inkscape:deskcolor="#d1d1d1"
   showgrid="false"
   inkscape:zoom="0.31875"
   inkscape:cx="312.15686"
   inkscape:cy="730.98039"
   inkscape:window-width="1850"
   inkscape:window-height="1016"
   inkscape:window-x="0"
   inkscape:window-y="0"
   inkscape:window-maximized="1"
   inkscape:current-layer="Layer_1" />&#10;<style
   type="text/css"
   id="style1">&#10;	.st0{fill:#0066CC;}&#10;	.st1{fill:#002352;}&#10;	.st2{fill:#FFFFFF;}&#10;</style>&#10;<g
   id="g1"
   transform="matrix(1.231006,0,0,1.231006,-147.84382,-147.84382)">&#10;	<path
   class="st0"
   d="m 640,120.1 c -287.2,0 -519.9,232.8 -519.9,519.9 0,287.1 232.8,519.9 519.9,519.9 287.1,0 519.9,-232.8 519.9,-519.9 0,-287.1 -232.7,-519.9 -519.9,-519.9 z"
   id="path1" />&#10;	<circle
   class="st1"
   cx="640"
   cy="640"
   r="422.39999"
   id="circle1" />&#10;</g>&#10;<path
   class="st2"
   d="m 799.90768,379.02674 18.46508,-48.13234 c 1.84651,-4.92403 -1.72341,-10.09424 -6.89364,-10.09424 H 742.9121 l -21.66571,56.38006 h -30.40584 l 17.72648,-46.28582 c 1.84651,-4.92403 -1.72341,-10.09424 -6.89364,-10.09424 h -68.56702 l -21.66571,56.38006 H 396.99942 c -9.72495,0 -18.83438,5.29333 -23.63531,13.78728 l -53.42567,94.29505 h 74.72207 325.97038 c 13.29486,0 26.46662,2.46202 38.77668,7.50913 23.63532,9.72495 51.57915,31.75996 44.56242,81.36951 -11.69456,83.09289 -96.38776,230.3212 -280.17695,232.66012 l 95.03365,-247.4322 c 3.93923,-10.21735 -3.56992,-21.05021 -14.52586,-21.05021 H 476.89171 l -153.87575,378.165 c 0,0 31.02135,3.8162 79.64609,3.8162 l -15.26448,39.7615 h 70.04424 c 5.53953,0 10.58666,-3.4469 12.67936,-8.6171 l 13.17177,-34.222 c 10.34044,-0.8617 20.804,-1.9696 31.63685,-3.2006 l -17.72648,46.0397 h 70.04423 c 5.53953,0 10.58666,-3.4469 12.67936,-8.6171 L 599.86921,899.373 C 714.96826,873.15252 838.68436,816.03385 912.1754,695.51836 1060.5116,452.51779 906.3897,389.73648 799.90768,379.02674 Z"
   id="path2"
   style="stroke-width:1.23101" />&#10;</svg>
